<svg xmlns="http://www.w3.org/2000/svg" viewBox="0 0 28 28"><linearGradient id="a" x1="871.994" x2="879.146" y1="-396.174" y2="-403.944" gradientTransform="matrix(3.0757 0 0 -3.0757 -2678.632 -1216.067)" gradientUnits="userSpaceOnUse"><stop offset="0" stop-color="#6EC5A6"/><stop offset="1" stop-color="#3FC0EF"/></linearGradient><path fill="url(#a)" d="M5.917 0h16.165A5.917 5.917 0 0128 5.917v16.165A5.917 5.917 0 0122.083 28H5.917A5.917 5.917 0 010 22.083V5.917A5.917 5.917 0 015.917 0z"/><path fill="#fff" d="M11.5 21a.5.5 0 01-.5-.5v-13a.5.5 0 011 0v13a.5.5 0 01-.5.5zm5 0a.5.5 0 01-.5-.5v-13a.5.5 0 011 0v13a.5.5 0 01-.5.5z"/><path fill="#fff" d="M13.5 12h-4a.5.5 0 01-.5-.5v-4a.5.5 0 011 0V11h3V7.5a.5.5 0 011 0v4a.5.5 0 01-.5.5zm4 4h-1a.5.5 0 01-.5-.5v-8a.5.5 0 01.5-.5C17.878 7 19 8.121 19 9.5v5c0 .827-.673 1.5-1.5 1.5zm-.5-1h.5a.5.5 0 00.5-.5v-5c0-.652-.418-1.208-1-1.414V15z"/></svg>